<svg height="40" viewBox="0 0 40 40" width="40" xmlns="http://www.w3.org/2000/svg"><path d="m22.0204035 37.4035149c-.2443031 0-.4421044-.4018665-.4421044-.8976155 0-.4957489.1978013-.8979253.4421044-.8979253.2446401 0 .4424414.4021764.4424414.8979253 0 .495749-.1978013.8976155-.4424414.8976155m-3.905143 0c-.2443031 0-.4424413-.4018665-.4424413-.8976155 0-.4957489.1981382-.8979253.4424413-.8979253s.4424414.4021764.4424414.8979253c0 .495749-.1981383.8976155-.4424414.8976155m1.8846721-4.3917161c-2.9060275 0-5.2614464 1.5643978-5.2614464 3.4941006s2.3554189 3.4941006 5.2614464 3.4941006c2.9056906 0 5.2614464-1.5643978 5.2614464-3.4941006s-2.3557558-3.4941006-5.2614464-3.4941006m1.1412156-28.25043995c.0121309-.00743624.0272946-.00929529.0411103-.00495749l1.3128344.41797833c.0121309.00402796.021903.01208388.0272945.02292839l.3632535.7426939c.010446.02168902.0003369.04678631-.0235879.05670129-.0057285.00247874-.0124679.00371812-.0188703.00371812h-.8252391c-.0155006 0-.0299903-.00681655-.0387515-.01890043l-.8508487-1.16067224c-.0141528-.01952011-.0084243-.04616662.0128048-.05948987m17.964197-2.74025234c-.0283055-.2825769-.0636873-.56577349-.1138958-.85082914h-1.3472053c-.0043806.02881541-.0097721.05701113-.0134788.08582654-.9984415 6.89338919-5.1337348 11.59928609-12.4085758 14.11645139-.1314183-2.6175544-6.1658734-4.0778449-7.0783876-5.99298511-.6274378-1.31776269.747062-2.29376844 1.4526768-2.3941576.6567541-.09388246 1.0732488.12982425 1.249484.67112014l2.6583547-.1459361.5445432.87809534 1.5716272-.87809534.1910618-1.27376496h-.8825239c-.4330062 0-1.2181458-1.53744144-1.4247083-2.12552364-.6719178 0-1.8078429-.80992985-3.4071016-2.43040924v.90195325c-.6456341-.44741343-1.2124174-.88924968-1.7027084-1.32674813-.4744535-.42324567-.8767954-.84184369-1.2056779-1.25610391 0 .42262598.0687418.84153385.2052146 1.25610391.2257697.6844434.6372098 1.3574226 1.2360052 2.0195573-1.6481193.2041866-3.2264858 1.74007882-3.7508109 4.0542969-.8744366 3.85909579 2.6233099 8.48753189-.1516364 7.87714099-6.97797056-2.2045336-11.12741667-6.85558831-12.44934919-13.95099519-.00539152-.02881541-.01179394-.05701113-.01684849-.08582654h-1.33473737c-.100417.54749275-.15466914 1.09808393-.17589824 1.65084401-.50107409 2.97356419-.75076871 6.14697717-.75076871 9.44649632 0 10.2223434 5.86832905 18.6110354 11.4461901 23.5930025-.0090981-.1081353-.0148266-.2168902-.0148266-.3265746 0-1.5321741.9135251-2.9218204 2.3968661-3.9452322-1.0503348-1.2012617-1.2090476-4.0230027-1.2090476-4.0230027s3.7225054 1.2148948 4.1895455 2.687579c.9863106-.2630568 2.0629291-.4096126 3.191104-.4096126 1.1285119 0 2.2044564.1465558 3.191441.4096126.4667032-1.4726842 4.1892085-2.687579 4.1892085-2.687579s-.1587128 2.821741-1.2090476 4.0230027c1.4830041 1.0234118 2.3968662 2.4130581 2.3968662 3.9452322 0 .1828074-.0141528.3631361-.0394255.5412958 5.5546102-4.9531517 11.4711259-13.4363458 11.4711259-23.8077237 0-3.59789805-.2982183-7.04521233-.8946548-10.24651119" fill="#06d9c2" fill-rule="evenodd"/></svg>