<svg height="299.13824mm" viewBox="0 0 300.00033 299.13825" width="300.00034mm" xmlns="http://www.w3.org/2000/svg" xmlns:xlink="http://www.w3.org/1999/xlink"><marker id="a" orient="auto" overflow="visible" refX="0" refY="0"><path d="m0 0 5-5-17.5 5 17.5 5z" fill="#51e8de" fill-opacity=".980392" fill-rule="evenodd" stroke="#000" stroke-width="1pt" transform="matrix(.4 0 0 .4 4 0)"/></marker><marker id="b" orient="auto" overflow="visible" refX="0" refY="0"><path d="m0 0 5-5-17.5 5 17.5 5z" fill="#51e8de" fill-opacity=".980392" fill-rule="evenodd" stroke="#000" stroke-width="1pt" transform="matrix(.4 0 0 .4 4 0)"/></marker><marker id="c" orient="auto" overflow="visible" refX="0" refY="0"><path d="m0 0 5-5-17.5 5 17.5 5z" style="fill:#51e9de;fill-opacity:.980392;fill-rule:evenodd;stroke:#000;stroke-width:1pt;stroke-opacity:.980392" transform="matrix(.4 0 0 .4 4 0)"/></marker><marker id="d" orient="auto" overflow="visible" refX="0" refY="0"><path d="m0 0 5-5-17.5 5 17.5 5z" style="fill:#51e9de;fill-opacity:.980392;fill-rule:evenodd;stroke:#000;stroke-width:1pt;stroke-opacity:.980392" transform="matrix(.4 0 0 .4 4 0)"/></marker><marker id="e" orient="auto" overflow="visible" refX="0" refY="0"><path d="m0 0 5-5-17.5 5 17.5 5z" style="fill:#51e8de;fill-opacity:.980392;fill-rule:evenodd;stroke:#000;stroke-width:1pt;stroke-opacity:.980392" transform="matrix(.4 0 0 .4 4 0)"/></marker><marker id="f" orient="auto" overflow="visible" refX="0" refY="0"><path d="m0 0 5-5-17.5 5 17.5 5z" style="fill:#51e8de;fill-opacity:.980392;fill-rule:evenodd;stroke:#000;stroke-width:1pt;stroke-opacity:.980392" transform="matrix(.4 0 0 .4 4 0)"/></marker><marker id="g" orient="auto" overflow="visible" refX="0" refY="0"><path d="m0 0 5-5-17.5 5 17.5 5z" fill-opacity=".980392" fill-rule="evenodd" stroke="#000" stroke-opacity=".980392" stroke-width="1pt" transform="matrix(.4 0 0 .4 4 0)"/></marker><g fill-opacity=".980392" transform="translate(-23.053441 -45.60345)"><g fill-rule="evenodd" stroke="#000" stroke-linejoin="round"><path d="m243.83106 192.44594-29.15555 57.41821-63.06955 13.00494-49.49089-41.20131 1.35541-64.38213 51.18107-39.0819 62.46633 15.6478z" fill="#51e8de" marker-end="url(#a)" marker-mid="url(#b)" stroke-width="15.2647"/><path d="m229.96499 192.36043-23.22322 45.73523-50.23669 10.35881-39.4209-32.81801 1.07963-51.28221 40.76717-31.12984 49.75621 12.46392z" fill="#51e9de" marker-end="url(#d)" marker-mid="url(#c)" stroke-opacity=".980392" stroke-width="13.0434"/><path d="m204.11691 192.07695-12.90974 25.42411-27.92646 5.75844-21.91399-18.24346.60016-28.50766 22.66238-17.30501 27.65936 6.92866z" fill="#51e8de" marker-end="url(#f)" marker-mid="url(#e)" stroke-opacity=".980392" stroke-width="11.1342"/><path d="m199.32352 192.52304-11.90212 23.43973-25.74677 5.30899-20.20358-16.81954.55332-26.2826 20.89355-15.95434 25.50052 6.38787z" marker-end="url(#g)" stroke-opacity=".980392" stroke-width="0"/></g><text fill="#51e8de" font-family="Arial Rounded MT Bold" font-size="87.0463" stroke-width="2.17613" x="149.06471" y="214.02248"><tspan fill="#51e8de" fill-opacity=".980392" font-family="Arial Rounded MT Bold" font-size="87.0463" stroke-width="2.17613" x="149.06471" y="214.02248">s</tspan></text></g></svg>