<svg height="12.999" viewBox="0 0 13.001 12.999" width="13.001" xmlns="http://www.w3.org/2000/svg" xmlns:xlink="http://www.w3.org/1999/xlink"><linearGradient id="a" gradientUnits="objectBoundingBox" x1=".029" x2=".946" y1=".126" y2=".924"><stop offset="0" stop-color="#f9a554"/><stop offset=".525" stop-color="#fb1fb8"/><stop offset="1" stop-color="#0adced"/></linearGradient><linearGradient id="b" gradientUnits="objectBoundingBox" x2="1.157" y1=".5" y2=".5"><stop offset="0" stop-color="#5493f9"/><stop offset="1" stop-color="#0aedd9"/></linearGradient><linearGradient id="c" gradientUnits="objectBoundingBox" x1=".5" x2=".5" y2="1"><stop offset="0" stop-color="#f9a554"/><stop offset="1" stop-color="#f127b9"/></linearGradient><path d="m-7868-487h-9a1.993 1.993 0 0 0 -.587-1.414 1.986 1.986 0 0 0 -1.413-.586v-9a2 2 0 0 0 2-2h9a1.994 1.994 0 0 0 .587 1.414 1.986 1.986 0 0 0 1.413.586v9a2 2 0 0 0 -2 2zm-8.212-12a2.286 2.286 0 0 1 -1.788 1.788v7.423a2.287 2.287 0 0 1 1.788 1.788h7.423a2.292 2.292 0 0 1 1.79-1.788v-7.423a2.283 2.283 0 0 1 -1.788-1.788z" fill="url(#a)" transform="translate(7879 500)"/><path d="m3.823.145a1.873 1.873 0 0 1 .5 1.749 3.921 3.921 0 0 1 -.95 1.339c-.46.492-.356.7.106 1.134.6.566-1.027 1.623-1.027 1.623l.055-.013c2.685-.683 3.093-4.153 1.316-5.832zm0 0a1.949 1.949 0 0 1 .171 1.855 3.385 3.385 0 0 1 -1.966 1.643c-.648.26-.989.9-.343 1.17.91.381.027 1.341-.4 1.272-.027 0 .058.006.093.007 3.677.108 4.444-4.056 2.445-5.947zm0 0a1.75 1.75 0 0 1 -.023 1.665 3.59 3.59 0 0 1 -2.111 1.4 2.36 2.36 0 0 0 -1.428 1.121 1.3 1.3 0 0 0 .83 1.718 1.27 1.27 0 0 0 .291.043c3.673.108 4.44-4.056 2.441-5.947z" fill="url(#b)" transform="translate(4.832 4.854)"/><path d="m769.256 582.011.053.074a2.473 2.473 0 0 1 .593 1.651c-.042.309-.1.752-1.019 1.34-.061.039-.34.179-.413.209-.964.393-1.93.752-2.289 1.5a1.348 1.348 0 0 0 .29 1.6 1.263 1.263 0 0 1 -.541-1.785 25.317 25.317 0 0 1 3.326-4.589zm-1.175-2.653a1.51 1.51 0 0 0 .383 1.653c.777.934 1.555 1.877 1.438 2.726-.043.315-.1.769-1.07 1.373-.046.029-.245.129-.3.15-.985.4-1.988.762-2.354 1.53a1.348 1.348 0 0 0 .29 1.6 3.44 3.44 0 0 1 -1.145-.937 21.335 21.335 0 0 1 .433-3.381 6.819 6.819 0 0 0 1.656.24c.475-.721.021-2.13-.1-2.749a2.321 2.321 0 0 1 .769-2.205zm0 0a1.51 1.51 0 0 0 .383 1.653c.777.934 1.555 1.877 1.438 2.726-.042.309-.1.752-1.019 1.34-.061.039-.319.171-.382.2-.974.4-1.957.756-2.32 1.515a1.348 1.348 0 0 0 .29 1.6 3.144 3.144 0 0 1 -1.939-2.232 3.882 3.882 0 0 1 1.135-3.257 3.276 3.276 0 0 1 1.174-.76 1.7 1.7 0 0 0 -.581 1c0 .236.109.695.515.712 1.075.045.679-1.583.541-2.292a2.321 2.321 0 0 1 .765-2.205z" fill="url(#c)" transform="translate(-761.494 -577.858)"/></svg>