<svg height="100" viewBox="0 0 100 100" width="100" xmlns="http://www.w3.org/2000/svg" xmlns:xlink="http://www.w3.org/1999/xlink"><linearGradient id="a" gradientUnits="objectBoundingBox" x2="1" y1=".5" y2=".5"><stop offset="0" stop-color="#fad002"/><stop offset="1" stop-color="#06bfc1"/></linearGradient><path d="m67.684 80h-55.371a12.269 12.269 0 0 0 -3.613-8.7 12.215 12.215 0 0 0 -8.7-3.6v-55.4a12.323 12.323 0 0 0 12.313-12.3h55.371a12.271 12.271 0 0 0 3.616 8.7 12.228 12.228 0 0 0 8.7 3.6v55.4a12.325 12.325 0 0 0 -12.316 12.3zm-50.528-73.843a14.076 14.076 0 0 1 -11 11v45.684a14.078 14.078 0 0 1 11 11h45.675a14.111 14.111 0 0 1 11.013-11v-45.683a14.051 14.051 0 0 1 -11-11z" fill="#00b4a0" transform="translate(10 10)"/><path d="m0 0h100v100h-100z" fill="none"/><path d="m57.79 69h-46.576a14.305 14.305 0 0 0 -3.923-7.289 14.31 14.31 0 0 0 -7.291-3.922v-46.576a14.308 14.308 0 0 0 7.29-3.922 14.308 14.308 0 0 0 3.924-7.291h46.575a14.307 14.307 0 0 0 3.923 7.289 14.31 14.31 0 0 0 7.288 3.925v46.575a14.391 14.391 0 0 0 -11.21 11.211z" fill="none" transform="translate(15 16)"/><path d="m28.915 31.531a34.665 34.665 0 0 1 -16.434-4.145 33.857 33.857 0 0 1 -12.362-11.427l-.106-.167.106-.168a33.847 33.847 0 0 1 12.354-11.453 34.622 34.622 0 0 1 32.928 0 33.848 33.848 0 0 1 12.356 11.453l.107.168-.107.167a33.854 33.854 0 0 1 -12.365 11.426 34.658 34.658 0 0 1 -16.432 4.146zm-11.546-20.123a12.078 12.078 0 0 0 2.749 13.392 12.568 12.568 0 0 0 8.827 3.582 12.712 12.712 0 0 0 4.838-.953 12.255 12.255 0 0 0 7.707-11.377 12.1 12.1 0 0 0 -3.6-8.552 12.582 12.582 0 0 0 -8.639-3.676l-.314-.024a12.5 12.5 0 0 0 -11.568 7.608zm7.2 5.293a6.23 6.23 0 1 1 6.23 6.23 6.23 6.23 0 0 1 -6.231-6.231z" fill="url(#a)" transform="translate(20.987 33.994)"/></svg>