<svg height="100" viewBox="0 0 100 100" width="100" xmlns="http://www.w3.org/2000/svg"><path d="m0 0h100v100h-100z" fill="none"/><g transform="translate(-119.563 -99.638)"><path d="m211.138 154.621c-.119-.371-.253-.779-.4-1.229-5.919-17.81-15.72-35.077-18.776-37.187s-7.107 1.632-11.741 6.271l-.016.016q-.833.833-1.586 1.714c-5.155 5.779-10.5 12.147-17.85 15.234-21.449 9.006-34.455-38.929-36.983-20.091-.876 6.523 3.531 16.48 6.8 26.167.12.371.253.779.4 1.229 5.709 17.179 9.16 28.435 13.511 35.446s15.418-.39 20.016-6.3c4.617-4.706 12.11-17.245 20.894-18.591 18.167-2.784 21.454 26.849 26.228 27.306 8.189.788 2.773-20.297-.497-29.985z" fill="#b46717" transform="translate(-.025 -.068)"/><path d="m212.89 157.852c-4.673-13.638-14.1-37.9-18.9-41.294-2.8-1.979-8.189 17.7-12.822 21.123l-.015.012q-.833.615-1.586 1.265c-5.155 4.265-10.5 8.966-17.85 11.245-21.45 6.647-26.69-32.887-29.218-18.983-.876 4.816.96 13.807 4.23 20.958.119.274 2.228 3.537 2.377 3.87 5.709 12.679 3.241 20.452 7.714 27.126 2.549 3.8 10.374-.054 14.972-4.421 4.617-3.474 15.739-20.073 24.524-21.066 18.167-2.055 23.232 22.153 26.27 25.85 5.39 6.563 4.62-13.091.304-25.685z" fill="#fff" transform="translate(-2.057 -.42)"/><path d="m204.464 117.8s23.245 44.006 20.716 62.843-12.175-25.859-30.343-23.075c-8.785 1.346-16.766 13.307-21.382 18.013-5.393 5.499 31.009-57.781 31.009-57.781z" fill="#fbc139" transform="translate(-11.645 -.746)"/><path d="m206.939 117.8s9.765 18.046 15.684 35.856c4.479 13.485-4.867-9.58-16.423-7.329-9.854 1.921-19.576 12.554-22.566 15.6-3.491 3.566 23.305-44.127 23.305-44.127z" fill="#f9ae36" transform="translate(-14.102 -.747)"/><path d="m144.472 182.128s-23.244-44.006-20.716-62.843 12.175 25.859 30.343 23.075c8.785-1.345 19.285-15.66 23.901-20.36 5.393-5.5-33.528 60.128-33.528 60.128z" fill="#fbc139"/><path d="m145.709 188.9s-9.766-18.045-15.684-35.856c-4.48-13.484 4.868 9.581 16.422 7.329 9.854-1.92 19.966-13.8 22.955-16.851 3.493-3.563-23.693 45.378-23.693 45.378z" fill="#f9ae36" transform="translate(-1.255 -6.772)"/><path d="m151.89 183.7c3.9 2.695 12.969-3.511 17.3-9.945 8.158-12.119 12.112-22.884 19.313-35.564s13.741-19.1 9.837-21.79l-.023-.015c-3.9-2.695-12.969 3.511-17.3 9.945-8.158 12.114-12.117 22.879-19.317 35.559s-13.741 19.1-9.837 21.79" fill="#f09a24" transform="translate(-6.404 -.259)"/><g fill="#fff"><path d="m200.778 123.224c.008-.028.017-.055.026-.083a.612.612 0 0 1 -.026.083l.026-.083a2.822 2.822 0 0 1 2.242-1.9.523.523 0 1 0 -.162-1.033 3.866 3.866 0 0 0 -3.119 2.76.527.527 0 0 0 1.04.173" transform="translate(-17.981 -1.312)"/><path d="m205.3 120.58a.475.475 0 1 0 .051-.669.474.474 0 0 0 -.051.669z" transform="translate(-19.263 -1.217)"/></g></g></svg>