<svg height="100" viewBox="0 0 100 100" width="100" xmlns="http://www.w3.org/2000/svg"><g><path d="m0-0h100v100h-100z" stroke-width="1.11111"/><path d="m5 5h90v90h-90z" fill="#00f" stroke-width=".9"/><path d="m5 17.5h90v5h-90z" stroke-width="1.5"/><path d="m22.5 5h5v90h-5z" stroke-width="1.60357"/><path d="m70 5h5v90h-5z" stroke-width="1.60357"/><path d="m5 67.5h90v5h-90z" stroke-width="1.5"/><path d="m27.435664 88.551668c3.167934 1.624449 5.796051 4.09266 8.555594 6.302304 1.539186 1.226527 3.103806 2.419726 4.679217 3.599048 0 0 4.102909-2.606347 4.102909-2.606347-1.624527-1.124111-3.241296-2.260547-4.77408-3.509415-2.748959-2.210877-5.399328-4.541008-8.182996-6.708942 0 0-4.380644 2.923352-4.380644 2.923352z"/><path d="m53.33114 96.489c3.167934-1.624449 5.796051-4.09266 8.555594-6.302304 1.539186-1.226527 3.103806-2.419726 4.679217-3.599048 0 0 4.102909 2.606347 4.102909 2.606347-1.624527 1.124111-3.241296 2.260547-4.77408 3.509415-2.748959 2.210877-5.399328 4.541008-8.182996 6.70894 0 0-4.380644-2.92335-4.380644-2.92335z"/></g><path d="m50.000002-5 17.633555 35.72949 39.429833 5.729492-28.531694 27.811528 6.735418 39.27051-35.267114-18.54102-35.267116 18.54102 6.735421-39.27051-28.5316955-27.811531 39.4298325-5.729489z" fill="#f00" transform="matrix(.87621852 0 0 .92131067 6.189074 4.606553)"/><text font-family="sans-serif" font-size="38.2221" stroke-width=".955553" transform="scale(.96159846 1.0399351)" x="5.036578" xml:space="preserve" y="62.016754"><tspan font-family="DejaVu Math TeX Gyre" font-size="38.2221" stroke-width=".955553" x="5.036578" y="62.016754">JRPC </tspan></text><g><text fill="#fff" font-family="sans-serif" font-size="38.2221" stroke-width=".955553" transform="scale(.96159846 1.0399351)" x="6.180711" xml:space="preserve" y="62.882183"><tspan fill="#fff" font-family="DejaVu Math TeX Gyre" font-size="38.2221" stroke-width=".955553" x="6.180711" y="62.882183">JRPC </tspan></text><g stroke-width=".659965"><circle cx="93" cy="7" r="7"/><circle cx="7" cy="7" r="7"/><circle cx="93" cy="93" r="7"/><circle cx="7" cy="93" r="7"/></g><circle cx="49.5" cy="75.400002" r="7.5"/></g><g><circle cx="49.824341" cy="75.93029" fill="#ff0" r="9.6" stroke-width="1.28"/><ellipse cx="49.824341" cy="75.93029" rx="7.872" ry="7.872" stroke-width="1.0496"/><ellipse cx="49.824341" cy="75.93029" fill="#ffdc00" rx="7.680001" ry="7.68" stroke-width="1.024"/></g><g font-family="sans-serif"><text font-size="17.0666" stroke-width="1.28" x="43.766701" y="81.774956"><tspan font-size="17.0666" stroke-width="1.28" x="43.766701" y="81.774956">$</tspan></text><text fill="#ff0" font-size="17.067" stroke-width="1.28002" transform="scale(1.0000235 .99997651)" x="44.533222" y="81.265541"><tspan fill="#ff0" font-size="17.067" stroke-width="1.28002" x="44.533222" y="81.265541">$</tspan></text></g></svg>