<svg height="32" viewBox="0 0 32 32" width="32" xmlns="http://www.w3.org/2000/svg"><g fill="none" fill-rule="evenodd"><circle cx="16" cy="16" fill="#fff" r="16"/><g fill-rule="nonzero" transform="translate(8 7)"><path d="m0 3.15121951v12.02439029l7.80487805 2.8v-12.12195126l8.44390245-3.11219513-7.66341465-2.74146341z" fill="#00e599"/><path d="m8.44390244 6.2v6.5756098l7.80487806 2.8v-12.26341468z" fill="#00af92"/></g><g transform="translate(18 18)"><circle cx="7" cy="7" fill="#fff" r="7"/><path d="m4.33525358 4.48531455-1.03525358-1.03525358v3.53450453c0 1.42956048.8611713 2.71834963 2.18191393 3.2654164 1.32074263.5470668 2.84098108.2446779 3.85184155-.76616545zm5.30905405 4.9985019 1.03525357 1.03525355v-3.5345045c0-1.42956048-.86117129-2.71834963-2.18191392-3.26541643-1.32074263-.54706679-2.84098108-.24467787-3.85184155.76616548z" fill="#48a3ff" fill-rule="nonzero"/></g></g></svg>