<svg height="32" viewBox="0 0 32 32" width="32" xmlns="http://www.w3.org/2000/svg" xmlns:xlink="http://www.w3.org/1999/xlink"><linearGradient id="a" x1="17.30611%" x2="89.857211%" y1="13.596534%" y2="79.429964%"><stop offset="0" stop-color="#fff"/><stop offset="1" stop-color="#fec7e0"/></linearGradient><g fill="none" fill-rule="evenodd"><circle cx="16" cy="16" fill="url(#a)" r="16"/><g fill="#e62274" fill-rule="nonzero" transform="translate(8.327467 7.061333)"><path d="m7.24053333 8.40106667c.35413334.65706666-.45653333.86186666-.86186666.91306666-.60586667.0512-.70826667-.30293333-.60586667-.70826666.0512-.1536.1024-.30293334.25173333-.40533334.1024-.1024.25173334-.1536.40533334-.20053333.1536 0 .30293333 0 .45653333.1024.14933333.04693333.25173333.14933333.35413333.29866667zm2.2784-1.216c-.40533333 3.28960003 5.41439997 2.63253333 5.31626667 5.26506663.5589333-.7594666.8106667-2.7861333-.8618667-3.8485333-1.5189333-.9088-3.4944-.40106667-4.45439997-1.41653333zm3.34079997-1.26293334c-.0512-.0512-.1024-.0512-.1024-.1024.0512.0512.1024.0512.1024.1024z"/><path d="m14.2250667 8.34986667c-.0512-.1024-.1024-.20053334-.2005334-.30293334-.2005333-.25173333-.4565333-.45653333-.8106666-.55893333-.2005334-.0512-.4053334-.1024-.6570667-.1024h-.6058667c-.4565333-.0512-.9130666-.0512-1.3653333-.20053333-.1024-.0512-.2517333-.0512-.3541333-.1024-.0512 0-.1024-.0512-.1536-.0512s-.10240003-.0512-.15360003-.1024c-.20053334-.1024-.40533334-.25173334-.60586667-.45653334-.35413333-.35413333-.60586667-.70826666-.91306667-1.0624-.25173333-.35413333-.55893333-.70826666-.86186666-1.0624-.30293334-.30293333-.65706667-.60586666-1.0112-.81066666-.40533334-.20053334-.86186667-.30293334-1.2672-.35413334.45653333-.0512.91306666 0 1.36533333.1536.45653333.1536.86186667.45653334 1.216.75946667.20053333.20053333.45653333.45653333.60586667.65706667 1.46773333-.30293334 2.63253333-.0512 3.54133333.45653333.3029333.1536.5589333.35413333.8106667.55893333.0512.0512.1024.0512.1024.1024l.5589333.55893334c.5077333.7552.7594667 1.46773333.7594667 1.92zm-8.96000003-4.75733334c.35413333.0512.75946666.20053334 1.0112.50773334.25173333.30293333.35413333.65706666.40533333 1.0112.0512.25173333.1024.55893333.20053333.81066666.0512.1024.1536.25173334.20053334.35413334.0512.1024.1536.20053333.20053333.30293333v.1024c-.1536.1536-.45653333 0-.60586667-.1024-.25173333-.1024-.45653333-.25173333-.60586666-.45653333-.50773334-.60586667-.81066667-1.41653334-.81066667-2.2272.00426667-.09813334.00426667-.20053334.00426667-.30293334zm6.22506663 6.68159997c-.8106666 2.2272 2.8330667 3.7461334 1.4677334 6.0757334 1.4165333-.5589334 2.0736-2.3296 1.4677333-3.7461334-.5034667-1.216-1.9712-1.6725333-2.9354667-2.3296z"/><path d="m6.6816 13.2096c.20053333-.1536.45653333-.3029333.70826667-.4053333.25173333-.1024.50773333-.2005334.81066666-.2517334.55893334-.1024 1.0624-.1536 1.51893334-.3029333.20053333-.1024.40533333-.2005333.60586663-.3541333.1536-.1536.3029334-.3541334.4053334-.5589334.1024-.2517333.1024-.4565333.1024-.7082666 0-.2517334-.1024-.5077334-.1536-.7594667.2005333.2005333.3541333.4565333.4053333.7594667.1024.3029333.1024.5589333 0 .8618666-.0512.3029334-.2005333.5589334-.4565333.8106667-.2005334.2005333-.4565334.3541333-.7594667.4565333-.25173333.1024-.55893333.1536-.86186667.1536-.25173333 0-.55893333.0512-.81066666.0512-.50346667-.0554666-1.00693334.0469334-1.51466667.2474667zm5.1114667 3.9509333c-.1024.0512-.1536.1536-.2517334.2005334-.1024.0512-.2005333.1024-.3029333.1536-.2005333.1024-.4053333.1536-.6570667.1536-.60586663 0-1.06239997-.4565334-1.3141333-.96-.1536-.3541334-.30293333-.7082667-.50773333-1.0624-.30293334-.4565334-.81066667-.8618667-1.36533334-.8106667-.25173333.0512-.45653333.1536-.60586666.3541333-.35413334.5589334.1536 1.3141334.81066666 1.216.0512 0 .1024 0 .1536-.0512.0512 0 .1024-.0512.1536-.1024.1024-.0512.1536-.1536.20053334-.3029333.0512-.1024.0512-.2517333.0512-.3541333-.0512-.1024-.1024-.2517334-.20053334-.3029334.1024.0512.20053334.1536.25173334.3029334.0512.1536.0512.2517333.0512.4053333s-.1024.2517333-.20053334.4053333l-.1536.1536c-.0512.0512-.1536.0512-.20053333.1024-.1536.0512-.30293333.0512-.45653333.0512-.20053334-.0512-.40533334-.1024-.55893334-.2517333-.20053333-.1536-.35413333-.3541333-.50773333-.5589333-.20053333-.2005334-.45653333-.4053334-.70826667-.5077334-.20053333-.1024-.35413333-.1536-.55893333-.2005333-.1024 0-.20053333-.0512-.30293333-.0512-.0512 0-.25173334-.0512-.30293334-.0512.30293334-.3029333.65706667-.5589333 1.0112-.7594667.35413334-.2005333.75946667-.4053333 1.1648-.5077333.45653334-.1024.86186667-.1536 1.31413334-.1024.25173333.0512.45653333.1024.65706666.1536.20053334.1024.40533334.2005333.60586667.3541333s.30293333.3541334.40533333.6058667c.1024.2005333.1536.4053333.20053334.6570667.1536.6570666.1024 1.7194666.96000003 1.8730666h.3072c.1024 0 .2005333 0 .3029333-.0512.2005333-.0042666.4053333-.0554666.5546667-.1536zm-5.87093337-10.17599997c-.0512.1024-.1024.25173334-.1536.35413334-.1536.20053333-.35413333.30293333-.55893333.40533333-.1536.1024-.35413333.1536-.55893333.1536h-.1536c-.1536 0-.25173334.0512-.35413334.1536s-.20053333.20053333-.20053333.30293333c0 .0512-.0512.1536-.0512.20053334 0 .1536 0 .35413333-.0512.55893333-.0512.35413333-.1536.70826667-.30293333 1.0624-.20053334.4565333-.45653334.8106667-.40533334 1.3141333.0512.3029334.20053334.5589334.40533334.7594667.40533333.4053333 1.31413333.6058667 1.1136 1.6213333-.1024.6058667-1.1136 1.2672-2.53013334 1.4677334.1536 0-.20053333-.5589334-.20053333-.6058667-.1536-.2517333-.30293333-.4565333-.45653333-.7082667-.25173334-.5077333-.35413334-1.0624-.25173334-1.6213333s.50773334-1.0112.86186667-1.4677333c.40533333-.5077334.86186667-1.21600003.96-1.8730667 0-.1536.0512-.35413333.0512-.55893333.0512-.20053334.1024-.45653334.20053333-.65706667.0512-.1536.1536-.25173333.25173334-.35413333.0512-.0512.1024-.1536.1024-.20053334 0-.1024 0-.1536-.0512-.25173333l-2.22293334-4.05333333 3.2384 3.99786666c.0512.0512.1024.1024.1536.1024.0512.0512.1024.0512.1536.0512s.1024 0 .1536-.0512c.0512 0 .1024-.0512.1536-.1024s.0512-.1024.0512-.1536 0-.1024-.0512-.1536c-.20053333-.25173333-.45653333-.55893333-.65706666-.81066666l-.81066667-1.0112-1.62133333-2.02666667-2.12906667-2.8288 2.42773333 2.63253333 1.71946667 1.92426667.86186667.96c.30293333.30293333.55893333.65706667.86186666.96l.0512.0512v.1024c.0512.1024.0512.25173333 0 .35413333z"/><path d="m6.6816 16.4010667c-.1536-.1024-.30293333-.2517334-.40533333-.4053334.1024.1493334.256.3029334.40533333.4053334z"/></g><g transform="translate(18 18)"><circle cx="7" cy="7" fill="#fff" r="7"/><path d="m4.33525358 4.48531455-1.03525358-1.03525358v3.53450453c0 1.42956048.8611713 2.71834963 2.18191393 3.2654164 1.32074263.5470668 2.84098108.2446779 3.85184155-.76616545zm5.30905405 4.9985019 1.03525357 1.03525355v-3.5345045c0-1.42956048-.86117129-2.71834963-2.18191392-3.26541643-1.32074263-.54706679-2.84098108-.24467787-3.85184155.76616548z" fill="#48a3ff" fill-rule="nonzero"/></g></g></svg>